<svg width="10" height="15" viewBox="0 0 10 15" fill="none" xmlns="http://www.w3.org/2000/svg">
<path d="M4.10714 0.852273L4.10714 12.1023L1.51786 9.63068C1.16071 9.28977 0.625 9.28977 0.267857 9.63068C-0.0892859 9.97159 -0.0892859 10.483 0.267857 10.8239L4.375 14.7443C4.73214 15.0852 5.26786 15.0852 5.625 14.7443L9.73214 10.8239C10.0893 10.483 10.0893 9.97159 9.73214 9.63068C9.375 9.28977 8.83929 9.28977 8.48214 9.63068L5.89286 12.1023L5.89286 0.852273C5.89286 0.426137 5.53571 -2.41974e-07 5 -2.18557e-07C4.46429 -1.9514e-07 4.10714 0.426137 4.10714 0.852273Z" fill="#458FF6"/>
</svg>
